<?xml version="1.0" encoding="utf-8"?>
<!-- Generator: Adobe Illustrator 22.1.0, SVG Export Plug-In . SVG Version: 6.00 Build 0)  -->
<svg version="1.1" id="Layer_1" xmlns="http://www.w3.org/2000/svg" xmlns:xlink="http://www.w3.org/1999/xlink" x="0px" y="0px"
	 viewBox="0 0 892.3 748.4" style="enable-background:new 0 0 892.3 748.4;" xml:space="preserve">
<style type="text/css">
	.st0{fill:#FFFFFF;enable-background:new    ;}
</style>
<path class="st0" d="M463.6,201.3c14.2,57,148.6,95.8,259.5,123c113.6,28,165.8,53.4,169.3,81.6c-3,54.2-83,107.9-151,214.2
	c-37.1,46.9-96.5,93.6-143.8,113.8c-6,2.7-11.8,5-17.5,7c-2.8,1-5.6,1.8-8.3,2.6c-1.4,0.4-2.7,0.8-4.1,1.1c-1.3,0.3-2.7,0.7-4,0.9
	c-10.6,2.3-20.6,3.2-30.1,2.7c-19.1-1-36.4-7.4-54.5-18.5c-36.4-21.5-77.3-61.8-152.6-103.4c-73.5-41.8-183.6-85.2-313.9-114.9
	c-121.4-32.1-222.5-50.1-267-76.2c-3.1-1.6-6.1-3.3-9-5c-2.9-1.7-5.6-3.5-8.2-5.3c-5.3-3.6-10.1-7.5-14.6-11.5
	c-9.1-8.1-17.2-17.2-24.8-27.2c-15-20-28.8-44-37.9-70.8c-20.6-53.4-9.1-116.5,39-169.9C-263.3,91.4-191,45.4-136.8,8.8
	c31.7-18.4,62.3-33.3,96.9-45.3c8.7-3,17.6-5.8,26.9-8.5c2.3-0.7,4.7-1.3,7-2c2.4-0.6,4.8-1.3,7.2-1.9c4.8-1.2,9.8-2.4,14.8-3.6
	c20.1-4.6,42.1-8.6,66.3-12c93-13.1,227.4-18.1,328.9-7.9C517.6-62.4,565-33,539.7,19.3c-10.5,25.7-35,56.4-54.9,88.2
	c-9.8,15.9-18.3,32-22.6,47.8c-1.1,4-1.9,7.9-2.5,11.8c-0.5,3.9-0.8,7.8-0.7,11.6C459.1,186.4,460.6,193.9,463.6,201.3L463.6,201.3z
	"/>
</svg>
